<?xml version="1.0" encoding="UTF-8"?>
<svg xmlns="http://www.w3.org/2000/svg" width="1200" height="760" viewBox="0 0 1200 760">
  <defs>
    <marker id="axisArrow" markerWidth="12" markerHeight="12" refX="10" refY="6" orient="auto">
      <path d="M 0 0 L 12 6 L 0 12 z" fill="context-stroke"/>
    </marker>
  </defs>
  <rect width="100%" height="100%" fill="#07111f"/>
  <text x="72" y="54" fill="#f5fbff" font-size="30" font-family="Arial, sans-serif" font-weight="700">Laminar hose head exploded assembly</text>
  <text x="72" y="82" fill="#98aec4" font-size="15" font-family="Arial, sans-serif">Descriptor layer preview, explode = 1</text>
  
    <g>
      <rect x="928" y="96" width="204" height="152" rx="10" fill="#0b1a2b" stroke="#29445f" stroke-width="1"/>
      <text x="950" y="126" fill="#dcecff" font-size="17" font-family="Arial, sans-serif" font-weight="700">Assembly axes</text>
      
      <line x1="990" y1="206" x2="1078" y2="206" stroke="#ff6266" stroke-width="4" marker-end="url(#axisArrow)"/>
      <text x="1088" y="214" fill="#ff6266" font-size="24" font-family="Arial, sans-serif" font-weight="700">X</text>

      <line x1="990" y1="206" x2="949.52" y2="234.16" stroke="#7fdf63" stroke-width="4" marker-end="url(#axisArrow)"/>
      <text x="947.52" y="256.15999999999997" fill="#7fdf63" font-size="24" font-family="Arial, sans-serif" font-weight="700">Y</text>

      <line x1="990" y1="206" x2="990" y2="118" stroke="#66aaff" stroke-width="4" marker-end="url(#axisArrow)"/>
      <text x="986" y="106" fill="#66aaff" font-size="24" font-family="Arial, sans-serif" font-weight="700">Z</text>
      <path d="M 1024 210 A 28 28 0 0 0 996 182" fill="none" stroke="#ff6266" stroke-width="3" marker-end="url(#axisArrow)"/>
      <text x="1008" y="177" fill="#ff6266" font-size="12" font-family="Arial, sans-serif" font-weight="700">X rotation</text>
    </g>
  <g>
    <g>
      <polygon points="365.02,475.54 365.02,213.02 615.6,213.02 615.6,475.54" fill="#3d86b7" stroke="#081321" stroke-width="1.2"/>
<polygon points="265.99,544.43 265.99,281.92 365.02,213.02 365.02,475.54" fill="#4596cd" stroke="#081321" stroke-width="1.2"/>
<polygon points="365.02,475.54 615.6,475.54 516.56,544.43 265.99,544.43" fill="#3675a1" stroke="#081321" stroke-width="1.2"/>
<polygon points="365.02,213.02 265.99,281.92 516.56,281.92 615.6,213.02" fill="#4eaae8" stroke="#081321" stroke-width="1.2"/>
<polygon points="615.6,475.54 615.6,213.02 516.56,281.92 516.56,544.43" fill="#2f658a" stroke="#081321" stroke-width="1.2"/>
<polygon points="516.56,544.43 516.56,281.92 265.99,281.92 265.99,544.43" fill="#35729c" stroke="#081321" stroke-width="1.2"/>
      <text x="524.56" y="273.92" fill="#d9e8f5" font-size="12" font-family="Arial, sans-serif">Body Shell</text>
    </g>

    <g>
      <polygon points="661.8,671.88 661.8,602.77 671.3,602.77 671.3,671.88" fill="#c9b24c" stroke="#081321" stroke-width="1.2"/>
<polygon points="661.8,671.88 671.3,671.88 639.51,694 630.01,694" fill="#b09c43" stroke="#081321" stroke-width="1.2"/>
<polygon points="630.01,694 630.01,624.89 661.8,602.77 661.8,671.88" fill="#e1c856" stroke="#081321" stroke-width="1.2"/>
<polygon points="671.3,671.88 671.3,602.77 639.51,624.89 639.51,694" fill="#98873a" stroke="#081321" stroke-width="1.2"/>
<polygon points="661.8,602.77 630.01,624.89 639.51,624.89 671.3,602.77" fill="#ffe261" stroke="#081321" stroke-width="1.2"/>
<polygon points="639.51,694 639.51,624.89 630.01,624.89 630.01,694" fill="#ac9841" stroke="#081321" stroke-width="1.2"/>
      <text x="647.51" y="616.89" fill="#d9e8f5" font-size="12" font-family="Arial, sans-serif">Lens</text>
    </g>

    <g>
      <polygon points="613.07,635.36 613.07,490.63 638.85,490.63 638.85,635.36" fill="#c9b24c" stroke="#081321" stroke-width="1.2"/>
<polygon points="613.07,635.36 638.85,635.36 601.4,661.41 575.62,661.41" fill="#b09c43" stroke="#081321" stroke-width="1.2"/>
<polygon points="575.62,661.41 575.62,516.68 613.07,490.63 613.07,635.36" fill="#e1c856" stroke="#081321" stroke-width="1.2"/>
<polygon points="638.85,635.36 638.85,490.63 601.4,516.68 601.4,661.41" fill="#98873a" stroke="#081321" stroke-width="1.2"/>
<polygon points="613.07,490.63 575.62,516.68 601.4,516.68 638.85,490.63" fill="#ffe261" stroke="#081321" stroke-width="1.2"/>
<polygon points="601.4,661.41 601.4,516.68 575.62,516.68 575.62,661.41" fill="#ac9841" stroke="#081321" stroke-width="1.2"/>
      <text x="609.4" y="508.68" fill="#d9e8f5" font-size="12" font-family="Arial, sans-serif">Lens Holder</text>
    </g>

    <g>
      <polygon points="562.97,484.69 562.97,311.37 644.39,311.37 644.39,484.69" fill="#4eaca3" stroke="#081321" stroke-width="1.2"/>
<polygon points="562.97,484.69 644.39,484.69 564.66,540.16 483.25,540.16" fill="#44978f" stroke="#081321" stroke-width="1.2"/>
<polygon points="483.25,540.16 483.25,366.84 562.97,311.37 562.97,484.69" fill="#57c1b7" stroke="#081321" stroke-width="1.2"/>
<polygon points="644.39,484.69 644.39,311.37 564.66,366.84 564.66,540.16" fill="#3b827b" stroke="#081321" stroke-width="1.2"/>
<polygon points="562.97,311.37 483.25,366.84 564.66,366.84 644.39,311.37" fill="#63dacf" stroke="#081321" stroke-width="1.2"/>
<polygon points="564.66,540.16 564.66,366.84 483.25,366.84 483.25,540.16" fill="#43938b" stroke="#081321" stroke-width="1.2"/>
      <text x="572.66" y="358.84" fill="#d9e8f5" font-size="12" font-family="Arial, sans-serif">Straightener Stage</text>
    </g>

    <g>
      <polygon points="541.26,390.62 541.26,217.3 622.68,217.3 622.68,390.62" fill="#4eaca3" stroke="#081321" stroke-width="1.2"/>
<polygon points="541.26,390.62 622.68,390.62 542.95,446.08 461.54,446.08" fill="#44978f" stroke="#081321" stroke-width="1.2"/>
<polygon points="461.54,446.08 461.54,272.76 541.26,217.3 541.26,390.62" fill="#57c1b7" stroke="#081321" stroke-width="1.2"/>
<polygon points="622.68,390.62 622.68,217.3 542.95,272.76 542.95,446.08" fill="#3b827b" stroke="#081321" stroke-width="1.2"/>
<polygon points="541.26,217.3 461.54,272.76 542.95,272.76 622.68,217.3" fill="#63dacf" stroke="#081321" stroke-width="1.2"/>
<polygon points="542.95,446.08 542.95,272.76 461.54,272.76 461.54,446.08" fill="#43938b" stroke="#081321" stroke-width="1.2"/>
      <text x="550.95" y="264.76" fill="#d9e8f5" font-size="12" font-family="Arial, sans-serif">Diffuser Stage</text>
    </g>

    <g>
      <polygon points="521.14,245.99 521.14,170 569.99,170 569.99,245.99" fill="#3d86b7" stroke="#081321" stroke-width="1.2"/>
<polygon points="521.14,245.99 569.99,245.99 547.52,261.62 498.67,261.62" fill="#3675a1" stroke="#081321" stroke-width="1.2"/>
<polygon points="498.67,261.62 498.67,185.63 521.14,170 521.14,245.99" fill="#4596cd" stroke="#081321" stroke-width="1.2"/>
<polygon points="569.99,245.99 569.99,170 547.52,185.63 547.52,261.62" fill="#2f658a" stroke="#081321" stroke-width="1.2"/>
<polygon points="521.14,170 498.67,185.63 547.52,185.63 569.99,170" fill="#4eaae8" stroke="#081321" stroke-width="1.2"/>
<polygon points="547.52,261.62 547.52,185.63 498.67,185.63 498.67,261.62" fill="#35729c" stroke="#081321" stroke-width="1.2"/>
      <text x="555.52" y="177.63" fill="#d9e8f5" font-size="12" font-family="Arial, sans-serif">Inlet</text>
    </g>

    <g>
      <polygon points="892.4,451.93 892.4,236.63 934.01,236.63 934.01,451.93" fill="#2b5d94" stroke="#081321" stroke-width="1.2"/>
<polygon points="892.4,451.93 934.01,451.93 834.98,520.82 793.37,520.82" fill="#255282" stroke="#081321" stroke-width="1.2"/>
<polygon points="793.37,520.82 793.37,305.53 892.4,236.63 892.4,451.93" fill="#3069a7" stroke="#081321" stroke-width="1.2"/>
<polygon points="934.01,451.93 934.01,236.63 834.98,305.53 834.98,520.82" fill="#204770" stroke="#081321" stroke-width="1.2"/>
<polygon points="892.4,236.63 793.37,305.53 834.98,305.53 934.01,236.63" fill="#3677bc" stroke="#081321" stroke-width="1.2"/>
<polygon points="834.98,520.82 834.98,305.53 793.37,305.53 793.37,520.82" fill="#24507f" stroke="#081321" stroke-width="1.2"/>
      <text x="842.98" y="297.53" fill="#d9e8f5" font-size="12" font-family="Arial, sans-serif">Cap</text>
    </g>

    <g>
      <polygon points="911.71,445.04 911.71,250.01 930.71,250.01 930.71,445.04" fill="#555c66" stroke="#081321" stroke-width="1.2"/>
<polygon points="911.71,445.04 930.71,445.04 841,507.45 822,507.45" fill="#4b5159" stroke="#081321" stroke-width="1.2"/>
<polygon points="822,507.45 822,312.42 911.71,250.01 911.71,445.04" fill="#606772" stroke="#081321" stroke-width="1.2"/>
<polygon points="930.71,445.04 930.71,250.01 841,312.42 841,507.45" fill="#40454d" stroke="#081321" stroke-width="1.2"/>
<polygon points="911.71,250.01 822,312.42 841,312.42 930.71,250.01" fill="#6c7481" stroke="#081321" stroke-width="1.2"/>
<polygon points="841,507.45 841,312.42 822,312.42 822,507.45" fill="#494e57" stroke="#081321" stroke-width="1.2"/>
      <text x="849" y="304.42" fill="#d9e8f5" font-size="12" font-family="Arial, sans-serif">Screw Bosses</text>
    </g></g>
  
      <g transform="translate(72 718)">
        <rect width="16" height="16" rx="3" fill="#4ba3df"/>
        <text x="24" y="13" fill="#aec4d8" font-size="13" font-family="Arial, sans-serif">body</text>
      </g>

      <g transform="translate(204 718)">
        <rect width="16" height="16" rx="3" fill="#f5d95d"/>
        <text x="24" y="13" fill="#aec4d8" font-size="13" font-family="Arial, sans-serif">optics</text>
      </g>

      <g transform="translate(336 718)">
        <rect width="16" height="16" rx="3" fill="#5fd2c7"/>
        <text x="24" y="13" fill="#aec4d8" font-size="13" font-family="Arial, sans-serif">flowStage</text>
      </g>

      <g transform="translate(468 718)">
        <rect width="16" height="16" rx="3" fill="#3472b5"/>
        <text x="24" y="13" fill="#aec4d8" font-size="13" font-family="Arial, sans-serif">closure</text>
      </g>

      <g transform="translate(600 718)">
        <rect width="16" height="16" rx="3" fill="#68707c"/>
        <text x="24" y="13" fill="#aec4d8" font-size="13" font-family="Arial, sans-serif">hardware</text>
      </g>
</svg>
