<?xml version="1.0" encoding="UTF-8"?>
<svg xmlns="http://www.w3.org/2000/svg" width="960" height="560" viewBox="0 0 960 560">
  <rect width="100%" height="100%" fill="#07111f"/>
  <text x="44" y="58" fill="#f5fbff" font-size="30" font-family="Arial, sans-serif" font-weight="700">Laminar Hose Head JSCAD Preview Summary</text>
  <text x="44" y="86" fill="#98aec4" font-size="15" font-family="Arial, sans-serif">Generated from measured Printables reference dimensions</text>
  
    <g transform="translate(44 118)">
      <rect width="280" height="130" rx="10" fill="#102033" stroke="#2f7bc7" stroke-width="1"/>
      <text x="18" y="30" fill="#e8f3ff" font-size="18" font-family="Arial, sans-serif" font-weight="700">base</text>
      <text x="18" y="55" fill="#95b6d6" font-size="12" font-family="Arial, sans-serif">145.1 x 119 x 138.5 mm</text>
      <text x="18" y="75" fill="#95b6d6" font-size="12" font-family="Arial, sans-serif">731 generated polygons</text>
      <g transform="translate(188 72)">
        <polygon points="0,0 58.00000000000001,0 79.40523776705722,-21.405237767057205 21.405237767057205,-21.405237767057205" fill="#54a6dd"/>
        <polygon points="58.00000000000001,0 58.00000000000001,55.36181943487251 79.40523776705722,33.9565816678153 79.40523776705722,-21.405237767057205" fill="#3175b4"/>
        <rect x="0" y="0" width="58.00000000000001" height="55.36181943487251" fill="#8ed1f2"/>
      </g>
    </g>

    <g transform="translate(348 118)">
      <rect width="280" height="130" rx="10" fill="#102033" stroke="#2f7bc7" stroke-width="1"/>
      <text x="18" y="30" fill="#e8f3ff" font-size="18" font-family="Arial, sans-serif" font-weight="700">cap</text>
      <text x="18" y="55" fill="#95b6d6" font-size="12" font-family="Arial, sans-serif">119 x 119 x 23 mm</text>
      <text x="18" y="75" fill="#95b6d6" font-size="12" font-family="Arial, sans-serif">16 generated polygons</text>
      <g transform="translate(188 72)">
        <polygon points="0,0 58,0 84.1,-26.1 26.1,-26.1" fill="#54a6dd"/>
        <polygon points="58,0 58,11.210084033613445 84.1,-14.889915966386557 84.1,-26.1" fill="#3175b4"/>
        <rect x="0" y="0" width="58" height="11.210084033613445" fill="#8ed1f2"/>
      </g>
    </g>

    <g transform="translate(652 118)">
      <rect width="280" height="130" rx="10" fill="#102033" stroke="#2f7bc7" stroke-width="1"/>
      <text x="18" y="30" fill="#e8f3ff" font-size="18" font-family="Arial, sans-serif" font-weight="700">lensHolder</text>
      <text x="18" y="55" fill="#95b6d6" font-size="12" font-family="Arial, sans-serif">80 x 45 x 14.25 mm</text>
      <text x="18" y="75" fill="#95b6d6" font-size="12" font-family="Arial, sans-serif">16 generated polygons</text>
      <g transform="translate(188 72)">
        <polygon points="0,0 58,0 72.68125,-14.68125 14.68125,-14.68125" fill="#54a6dd"/>
        <polygon points="58,0 58,10.331249999999999 72.68125,-4.350000000000001 72.68125,-14.68125" fill="#3175b4"/>
        <rect x="0" y="0" width="58" height="10.331249999999999" fill="#8ed1f2"/>
      </g>
    </g>

    <g transform="translate(44 276)">
      <rect width="280" height="130" rx="10" fill="#102033" stroke="#2f7bc7" stroke-width="1"/>
      <text x="18" y="30" fill="#e8f3ff" font-size="18" font-family="Arial, sans-serif" font-weight="700">straightener</text>
      <text x="18" y="55" fill="#95b6d6" font-size="12" font-family="Arial, sans-serif">95.8 x 45 x 95.8 mm</text>
      <text x="18" y="75" fill="#95b6d6" font-size="12" font-family="Arial, sans-serif">14328 generated polygons</text>
      <g transform="translate(188 72)">
        <polygon points="0,0 58,0 70.25991649269311,-12.259916492693112 12.259916492693112,-12.259916492693112" fill="#54a6dd"/>
        <polygon points="58,0 58,58 70.25991649269311,45.74008350730689 70.25991649269311,-12.259916492693112" fill="#3175b4"/>
        <rect x="0" y="0" width="58" height="58" fill="#8ed1f2"/>
      </g>
    </g>

    <g transform="translate(348 276)">
      <rect width="280" height="130" rx="10" fill="#102033" stroke="#2f7bc7" stroke-width="1"/>
      <text x="18" y="30" fill="#e8f3ff" font-size="18" font-family="Arial, sans-serif" font-weight="700">diffuser</text>
      <text x="18" y="55" fill="#95b6d6" font-size="12" font-family="Arial, sans-serif">95.8 x 95.8 x 45 mm</text>
      <text x="18" y="75" fill="#95b6d6" font-size="12" font-family="Arial, sans-serif">1162 generated polygons</text>
      <g transform="translate(188 72)">
        <polygon points="0,0 58,0 84.1,-26.1 26.1,-26.1" fill="#54a6dd"/>
        <polygon points="58,0 58,27.244258872651358 84.1,1.1442588726513563 84.1,-26.1" fill="#3175b4"/>
        <rect x="0" y="0" width="58" height="27.244258872651358" fill="#8ed1f2"/>
      </g>
    </g>

    <g transform="translate(652 276)">
      <rect width="280" height="130" rx="10" fill="#102033" stroke="#2f7bc7" stroke-width="1"/>
      <text x="18" y="30" fill="#e8f3ff" font-size="18" font-family="Arial, sans-serif" font-weight="700">lens</text>
      <text x="18" y="55" fill="#95b6d6" font-size="12" font-family="Arial, sans-serif">38.2 x 38.2 x 5.25 mm</text>
      <text x="18" y="75" fill="#95b6d6" font-size="12" font-family="Arial, sans-serif">182 generated polygons</text>
      <g transform="translate(188 72)">
        <polygon points="0,0 58,0 84.1,-26.1 26.1,-26.1" fill="#54a6dd"/>
        <polygon points="58,0 58,10 84.1,-16.1 84.1,-26.1" fill="#3175b4"/>
        <rect x="0" y="0" width="58" height="10" fill="#8ed1f2"/>
      </g>
    </g>
</svg>
